<?xml version="1.0" encoding="UTF-8" standalone="no"?>
<svg
   width="1024pt"
   height="1024pt"
   viewBox="0 0 1024 1024"
   version="1.1"
   id="svg14"
   sodipodi:docname="icon.svg"
   inkscape:version="1.4.3 (0d15f75042, 2025-12-25)"
   inkscape:export-filename="icon.png"
   inkscape:export-xdpi="72"
   inkscape:export-ydpi="72"
   xmlns:inkscape="http://www.inkscape.org/namespaces/inkscape"
   xmlns:sodipodi="http://sodipodi.sourceforge.net/DTD/sodipodi-0.dtd"
   xmlns="http://www.w3.org/2000/svg"
   xmlns:svg="http://www.w3.org/2000/svg">
  <defs
     id="defs14" />
  <sodipodi:namedview
     id="namedview14"
     pagecolor="#ffffff"
     bordercolor="#000000"
     borderopacity="0.25"
     inkscape:showpageshadow="2"
     inkscape:pageopacity="0.0"
     inkscape:pagecheckerboard="0"
     inkscape:deskcolor="#d1d1d1"
     inkscape:document-units="pt"
     showgrid="true"
     inkscape:zoom="0.3482666"
     inkscape:cx="559.91588"
     inkscape:cy="676.2061"
     inkscape:window-width="2048"
     inkscape:window-height="1208"
     inkscape:window-x="0"
     inkscape:window-y="0"
     inkscape:window-maximized="1"
     inkscape:current-layer="svg14">
    <inkscape:grid
       id="grid14"
       units="pt"
       originx="0"
       originy="0"
       spacingx="0.99999997"
       spacingy="0.99999997"
       empcolor="#0099e5"
       empopacity="0.30196078"
       color="#0099e5"
       opacity="0.14901961"
       empspacing="5"
       enabled="true"
       visible="true" />
  </sodipodi:namedview>
  <g
     id="#050729ff"
     style="display:none">
    <path
       fill="#050729"
       opacity="1"
       d="M 0,0 H 1024 V 1024 H 0 V 0 m 626.65,342.7 c -6.09,6.14 -10.68,13.6 -14.17,21.48 -6.41,1.37 -13.1,0.56 -19.61,0.59 -0.02,-6.61 0.19,-13.22 0.11,-19.82 -0.02,-4.01 -4.42,-6.54 -8.07,-5.96 -2.34,0.96 -3.98,3.4 -3.9,5.94 -0.15,6.61 0.05,13.23 -0.26,19.84 -5.33,0.19 -10.65,0.17 -15.97,0.18 -1.1,-7.25 -0.04,-14.61 -0.89,-21.86 -0.85,-3.8 -4.82,-4.61 -8.16,-4.23 -1.61,1.28 -3.51,2.71 -3.46,5 -0.41,7 -0.17,14.03 -0.27,21.05 -5.59,-0.09 -11.18,-0.08 -16.77,-0.11 0.03,-6.58 0.27,-13.17 -0.14,-19.74 -0.08,-3.47 -2.93,-5.92 -6.01,-6.94 -1.84,0.76 -3.58,1.73 -5.13,2.98 -0.87,7.85 -0.87,15.76 -0.95,23.65 -5.39,-0.12 -10.8,0.32 -16.16,-0.4 -0.65,-7.35 0.7,-14.8 -0.86,-22.06 -2.07,-2.62 -5.17,-3.88 -8.48,-3.38 -0.83,0.82 -1.66,1.63 -2.49,2.44 -2.03,7.65 0.38,15.61 -1.03,23.36 -5.59,0.16 -11.18,0.36 -16.77,0.1 -0.2,-5.64 0.32,-11.27 0.6,-16.89 0.11,-3.5 -0.88,-8.16 -4.87,-9.02 -2.6,-0.92 -5.03,0.63 -6.99,2.16 -1.13,7.91 -0.69,15.92 -0.98,23.88 -5.52,0.01 -11.06,0.23 -16.56,-0.3 -0.59,-6.51 0.07,-13.06 -0.32,-19.57 -0.1,-3.96 -4.73,-7.7 -8.52,-5.57 -2.25,0.82 -3.38,3.16 -3.44,5.44 -0.3,6.6 -0.07,13.22 -0.13,19.83 -6.92,-0.21 -13.84,0.11 -20.76,0.1 -3.17,-6.27 -6.43,-12.58 -11.14,-17.86 -7.61,-9.2 -17.99,-16.73 -29.93,-18.88 -12.36,-2.59 -25.85,1.34 -34.99,10.04 -5.25,4.57 -8.1,11.18 -10.09,17.7 -4.45,16.51 5.97,35.89 22.58,40.55 9.09,2.44 20.52,0.75 26.28,-7.35 3.67,-4.6 5.11,-10.89 3.78,-16.62 -1.53,-4.89 -4.78,-9.32 -9.16,-12.02 -3.71,-1.83 -8.25,-1.57 -11.9,0.25 -4.64,2.39 -6.11,9.23 -2.84,13.3 1.72,2.56 4.74,3.68 6.9,5.78 -3.18,0.32 -6.51,1.03 -9.61,-0.07 -5.59,-2.68 -9.72,-8.4 -10.11,-14.63 -0.86,-8.34 5.28,-16.31 13.05,-18.82 8.44,-3.34 18.38,-1.38 25.5,4.04 3.89,3.52 7.76,7.19 10.54,11.69 7.05,11.93 8.39,26.49 6.84,40.04 -1.15,11.98 -5.91,23.15 -11.07,33.88 -12.51,23.97 -28.34,46.17 -38.91,71.16 -4.66,12.6 -9.17,25.48 -10.04,39.01 -7.95,64.51 27.73,131.31 84.49,162.35 31.69,19.14 69.95,26.21 106.58,22.41 11.68,-0.55 22.87,-4.1 34.11,-7 22.91,-7.5 44.84,-18.73 62.92,-34.86 8.28,-7.7 16.62,-15.43 23.48,-24.46 11.57,-14.11 20.28,-30.42 26.51,-47.54 6.75,-21.57 10.79,-44.37 8.51,-67.01 -1.56,-12.89 -3.68,-25.86 -8.43,-38 -2.98,-8.07 -6.11,-16.14 -10.55,-23.54 -5.84,-10.07 -11.83,-20.06 -17.78,-30.06 -7.62,-13.4 -16.16,-26.48 -20.93,-41.26 -3.61,-9.55 -4.56,-19.88 -4,-30.02 0.3,-8.53 2.34,-17.18 6.92,-24.47 4.93,-7.71 12.04,-14.7 21.2,-16.89 5.69,-1.76 12.01,-1.57 17.45,0.94 6.48,3.26 10.88,10.15 11.43,17.35 -0.02,5.09 -2.27,10.31 -6.51,13.3 -3.47,2.89 -9.12,4.42 -12.83,1.17 3.89,-0.18 6.54,-3.54 8.27,-6.68 2.28,-6.58 -4.33,-13.11 -10.77,-12.72 -9.22,0.97 -16.9,10.19 -15.47,19.5 0.96,8.85 8.42,16.04 16.88,18.04 7.54,1.47 15.68,0.14 22.19,-4.02 9.01,-5.17 13.64,-15.67 14.54,-25.67 0.92,-8.31 -1.52,-16.84 -6.63,-23.44 -8.04,-11.56 -22.75,-17.84 -36.65,-16.02 -11.14,1.44 -21.51,7.12 -29.2,15.24 z"
       id="path1"
       style="fill:none" />
    <path
       fill="#050729"
       opacity="1"
       d="m 419.27,381.17 c 10.57,-0.66 21.14,0.15 31.72,-0.17 28.01,-0.4 56,-0.24 84,0 24.4,-0.88 48.81,0.72 73.2,-0.52 -4.16,17.89 -4.2,36.53 -1.94,54.68 1.55,9.09 3.28,18.24 6.7,26.84 3.17,8.05 6.09,16.21 9.79,24.04 3.97,9.32 8.88,18.25 12.05,27.9 8.58,25.05 8.76,52.57 2.11,78.1 -5.22,17.99 -14.56,34.79 -27.48,48.39 -4.12,4.21 -7.82,8.88 -12.5,12.5 -10.28,8.16 -21.32,15.73 -33.62,20.5 -7.78,2.3 -15.12,6.09 -23.19,7.37 -13.18,2.21 -26.72,3.62 -40.01,1.49 -8.15,-0.53 -16.27,-1.91 -24.01,-4.55 -9.34,-3.02 -18.87,-6.07 -27.03,-11.69 -6.95,-3.89 -13.56,-8.37 -19.8,-13.32 -7.03,-6.27 -13.32,-13.41 -18.68,-21.15 -6.28,-10.4 -13.02,-20.68 -17.04,-32.22 -10.81,-28.26 -8.43,-60.13 1.5,-88.28 10.33,-26.67 24.78,-52.34 28.1,-81.19 1.68,-10.89 0.63,-21.94 -0.84,-32.78 -0.46,-5.41 -1.88,-10.66 -3.03,-15.94 m 17.55,12.82 c -1.09,15.96 -0.77,31.98 -0.82,47.97 0,55.68 -0.06,111.36 0.03,167.04 0.11,13.72 -0.2,27.5 0.94,41.18 0.16,-1.14 0.46,-3.41 0.62,-4.55 1.27,-0.51 2.54,-1.03 3.81,-1.53 0.1,1.06 0.28,3.2 0.37,4.27 0.4,-1.41 0.91,-2.77 1.53,-4.08 1.3,0.65 2.63,0.2 3.94,-0.19 0.16,-0.94 0.47,-2.84 0.63,-3.78 -0.45,0 -1.34,-0.01 -1.78,-0.01 v -0.78 c 0.41,0.05 1.24,0.14 1.65,0.19 0.88,-61.91 0.24,-123.85 0.61,-185.78 -0.21,-21.28 0.64,-42.59 -0.95,-63.84 -0.96,0.44 -2.9,1.31 -3.86,1.75 0.72,-1.55 1.46,-3.09 2.21,-4.62 -0.31,-0.03 -0.93,-0.07 -1.24,-0.1 -0.01,0.4 -0.05,1.19 -0.06,1.58 -0.78,0.01 -2.33,0.02 -3.11,0.02 -0.08,-0.53 -0.24,-1.58 -0.32,-2.11 -1.31,1.67 -2.07,3.62 -2.27,5.83 -0.3,-3.38 -0.65,-6.74 -1.33,-10.06 0.18,3.88 0.04,7.76 -0.6,11.6 m 33.44,-10.01 c 0.53,1.47 1.6,4.4 2.13,5.86 -1.38,-0.72 -4.12,-2.16 -5.5,-2.88 1.04,0.65 3.11,1.95 4.15,2.6 -1.6,-0.02 -3.18,-0.01 -4.77,0.03 -0.23,-0.49 -0.69,-1.46 -0.92,-1.94 0.45,6.12 -0.29,12.24 -0.33,18.37 0.01,64.67 -0.04,129.34 -0.02,194.01 0.15,21.19 -0.31,42.39 0.67,63.57 0.23,-0.57 0.67,-1.71 0.9,-2.28 0.75,0 2.24,0 2.99,0 v 1.39 l 1.14,-0.51 c -0.01,0.9 -0.01,2.69 -0.01,3.58 0.63,-1.32 1.9,-3.97 2.53,-5.29 0.16,1.33 0.47,3.98 0.63,5.31 l -1.47,-0.38 c -0.03,0.35 -0.07,1.05 -0.1,1.4 1.18,-0.53 2.35,-1.04 3.57,-1.46 -0.43,-0.51 -1.29,-1.53 -1.71,-2.04 0.59,0.11 1.79,0.31 2.39,0.42 -0.05,-6.92 0.03,-13.85 0.76,-20.74 0.26,-61.33 0.12,-122.66 0.2,-183.99 0.01,-16 -0.4,-32.01 0.09,-48.01 0.17,-5.5 -0.38,-10.99 -0.21,-16.48 l -0.98,-0.09 c 0.09,-2.19 0.15,-4.37 0.22,-6.55 -0.54,0.68 -1.63,2.02 -2.18,2.69 0.01,-1.07 0.03,-3.21 0.04,-4.28 -0.98,0.15 -1.95,0.31 -2.91,0.47 -0.33,-0.7 -0.97,-2.08 -1.3,-2.78 m 57.06,2.24 c 0.45,0.61 0.45,0.61 0,0 m -2.76,3.45 -0.99,-0.26 c -0.49,16.2 -0.85,32.41 -0.29,48.61 -0.31,22.31 -0.21,44.63 -0.12,66.94 0.51,55.26 0.09,110.52 0.13,165.78 1.34,-0.18 2.69,-0.34 4.05,-0.5 0.2,0.86 0.61,2.58 0.81,3.44 0.24,-2.1 0.35,-4.19 0.36,-6.28 0.53,-0.02 1.59,-0.06 2.12,-0.07 -0.07,0.81 -0.22,2.44 -0.29,3.26 0.59,-0.01 1.77,-0.03 2.36,-0.03 -0.14,-1.15 -0.28,-2.3 -0.4,-3.43 0.55,0.22 1.67,0.65 2.22,0.87 0.76,-68.99 0.3,-137.99 0.55,-206.98 -0.08,-23.14 0.44,-46.29 -0.58,-69.41 l -1.13,-0.04 0.01,-1.46 c -0.53,0.2 -1.58,0.59 -2.11,0.78 0.11,-1.32 0.22,-2.64 0.35,-3.95 -0.79,1.32 -1.29,3.05 -3.16,3.03 -0.03,-0.65 -0.09,-1.93 -0.11,-2.58 -0.67,1.18 -2.01,3.53 -2.67,4.7 -0.06,-2.05 -0.22,-4.09 -0.5,-6.11 -0.48,1.17 -0.68,2.4 -0.61,3.69 m 59.49,-2.39 c -1.59,2.88 3.42,0.16 0,0 m -31.45,-0.05 c -0.81,10.23 -0.62,20.5 -0.26,30.74 -0.09,44.36 -0.34,88.71 -0.2,133.07 -0.31,15.67 0.42,31.33 -0.03,46.99 0.16,9.33 0.03,18.65 0.14,27.98 0.19,12.84 -0.51,25.77 0.76,38.56 0.15,-0.99 0.46,-2.98 0.61,-3.97 l 1.11,-0.07 -0.32,-1.42 c 1,0.21 2.01,0.44 3.03,0.67 0.15,-0.83 0.45,-2.5 0.6,-3.33 0.13,0.8 0.38,2.4 0.5,3.2 0.51,0.01 1.52,0.04 2.03,0.06 l -0.29,-1.31 1.37,0.17 -0.04,-1.52 c 0.51,0.19 1.52,0.56 2.02,0.75 -0.17,-6.28 0.05,-12.56 0.69,-18.8 -0.46,-34.97 0.07,-69.94 -0.17,-104.91 -0.11,-29.7 0.34,-59.39 -0.06,-89.08 -0.25,-17.63 0.51,-35.27 -0.53,-52.87 l -1.81,0.63 c 0.23,-1.43 0.49,-2.87 1.19,-4.16 -0.75,0.24 -2.24,0.71 -2.99,0.94 0.09,0.56 0.26,1.67 0.34,2.22 -0.58,-0.12 -1.76,-0.37 -2.34,-0.49 0.4,-0.49 1.21,-1.47 1.61,-1.96 -1.97,0.15 -3.95,0.24 -5.93,0.34 -0.25,-0.61 -0.77,-1.82 -1.03,-2.43 m -58.13,4.33 c -0.19,27.83 -0.66,55.66 -0.39,83.5 0.33,24.32 -0.24,48.63 -0.07,72.95 0.18,28.64 -0.01,57.28 0.07,85.92 -0.01,11.17 -0.34,22.37 0.79,33.5 0.24,1.84 0.74,3.62 1.39,5.38 0.12,-2.17 0.15,-4.29 0.06,-6.44 2.1,-0.59 4.26,-0.96 6.44,-1.04 -0.14,0.57 -0.42,1.71 -0.57,2.29 1.2,0 2.4,0.01 3.61,0.04 l -0.46,-1.23 1.2,0.09 c 0.47,-39.5 0.32,-79.02 0.39,-118.53 -0.33,-51.57 0.56,-103.15 -0.49,-154.72 -1.18,0.25 -2.35,0.5 -3.51,0.76 0.84,-0.62 2.51,-1.86 3.35,-2.48 -0.96,-0.07 -2.88,-0.22 -3.84,-0.29 -0.09,0.7 -0.28,2.1 -0.38,2.8 -0.15,-0.7 -0.45,-2.08 -0.6,-2.78 -2.27,0.37 -4.72,0.5 -4.91,-2.93 2.33,3.94 -0.75,2.82 -2.08,3.21 m 86.5,21.46 c -0.44,41.98 0.34,83.96 -0.14,125.94 0.15,27.67 0.11,55.34 0.02,83.01 0.03,7.24 -0.9,14.72 1.36,21.74 0.16,-1.99 0.36,-3.79 0.23,-5.74 0.94,0.77 2.84,2.31 3.79,3.08 -0.52,-1.47 -1.55,-4.4 -2.07,-5.87 0.39,0.61 1.18,1.82 1.57,2.43 0.42,0.03 1.27,0.08 1.69,0.11 0.23,-1.05 0.49,-2.08 0.78,-3.1 0.05,1.24 0.16,3.72 0.21,4.96 l 2.81,-2.69 -0.4,-0.93 c -0.35,-0.49 -1.06,-1.46 -1.41,-1.94 0.29,-0.67 0.6,-1.32 0.95,-1.94 -0.06,-0.58 -0.19,-1.73 -0.25,-2.31 0.13,1.28 0.72,2.2 1.76,2.76 1.52,-5.96 0.6,-12.33 0.99,-18.47 0.62,-12.04 0,-24.08 -0.02,-36.12 0,-45.97 0.1,-91.95 0.07,-137.93 -0.01,-14.24 0.19,-28.49 -0.53,-42.71 -0.61,0.56 -1.2,1.13 -1.78,1.71 -1.02,-0.82 -2.09,-0.85 -3.21,-0.08 0.39,-0.81 1.16,-2.43 1.54,-3.24 -0.87,-0.04 -2.61,-0.13 -3.48,-0.18 l 0.15,-1.16 c -0.74,0.08 -2.22,0.24 -2.96,0.32 -0.16,-1.33 -0.47,-4 -0.62,-5.33 -1.6,7.77 -0.79,15.79 -1.05,23.68 m -141.7,233.07 c 0.33,3.4 2.83,-1.77 0,0 z"
       id="path2"
       style="fill:none" />
    <path
       fill="#050729"
       opacity="1"
       d="m 446.27,398.04 c 0.49,0.59 0.49,0.59 0,0 z"
       id="path3" />
    <path
       fill="#050729"
       opacity="1"
       d="m 626.91,451.91 c 2.42,3.18 4.27,6.73 6.28,10.18 6.6,10.16 12.82,20.59 18.5,31.3 12.18,20.32 19.94,43.71 19.74,67.56 -0.2,14.14 -1.65,28.4 -5.59,42.03 -4.18,13.69 -9.76,27.01 -17.53,39.06 -4.76,6.32 -9.25,12.87 -14.47,18.83 -13.42,14.84 -29.05,28.03 -47.14,36.82 -8.39,3.98 -16.69,8.29 -25.74,10.62 -23.42,7.94 -48.74,8.44 -73.09,5.37 -9.71,-1.96 -19.49,-3.94 -28.73,-7.62 -9.08,-3.07 -17.51,-7.67 -25.9,-12.22 -9,-5.05 -16.9,-11.74 -24.8,-18.31 -11.43,-10.01 -21.18,-21.84 -29.28,-34.67 -15.49,-26.77 -25.15,-58.08 -21.37,-89.22 0.95,-17.8 6.79,-34.99 15.11,-50.64 8.22,-15.6 17.68,-30.49 26.07,-45.98 0.73,-1.05 1.57,-2.01 2.52,-2.88 -1.54,5.88 -3.9,11.49 -6.58,16.94 -1.77,4.44 -3.41,8.94 -5.76,13.13 -7.88,17.8 -15.42,36.19 -17.39,55.75 -0.93,5.95 -0.84,11.99 -1.58,17.96 -1.21,36.08 12.97,72.1 37.53,98.44 26.31,27.78 63.87,44.95 102.28,45.24 12.99,-0.1 26.18,-0.56 38.79,-3.98 11.34,-2.81 22.3,-7.01 32.87,-11.96 8.62,-5.19 17.34,-10.37 24.97,-16.98 10.79,-9.24 20.52,-19.82 28.36,-31.69 11.52,-16.14 17.78,-35.38 21.48,-54.69 2.69,-17.66 2.15,-35.82 -1.5,-53.31 -4.07,-22.03 -14.81,-41.92 -23.5,-62.34 -1.87,-4.11 -3.68,-8.29 -4.55,-12.74 z"
       id="path4"
       style="fill:none" />
  </g>
  <g
     id="g15"
     transform="translate(0.23775814,-0.82041939)">
    <g
       id="#dda54bff"
       transform="matrix(1.9366362,0,0,1.9366362,-483.06917,-512.58892)">
      <path
         fill="#dda54b"
         opacity="1"
         d="m 626.65,342.7 c 7.69,-8.12 18.06,-13.8 29.2,-15.24 13.9,-1.82 28.61,4.46 36.65,16.02 5.11,6.6 7.55,15.13 6.63,23.44 -0.9,10 -5.53,20.5 -14.54,25.67 -6.51,4.16 -14.65,5.49 -22.19,4.02 -8.46,-2 -15.92,-9.19 -16.88,-18.04 -1.43,-9.31 6.25,-18.53 15.47,-19.5 6.44,-0.39 13.05,6.14 10.77,12.72 -1.73,3.14 -4.38,6.5 -8.27,6.68 3.71,3.25 9.36,1.72 12.83,-1.17 4.24,-2.99 6.49,-8.21 6.51,-13.3 -0.55,-7.2 -4.95,-14.09 -11.43,-17.35 -5.44,-2.51 -11.76,-2.7 -17.45,-0.94 -9.16,2.19 -16.27,9.18 -21.2,16.89 -4.58,7.29 -6.62,15.94 -6.92,24.47 -0.56,10.14 0.39,20.47 4,30.02 4.77,14.78 13.31,27.86 20.93,41.26 5.95,10 11.94,19.99 17.78,30.06 4.44,7.4 7.57,15.47 10.55,23.54 4.75,12.14 6.87,25.11 8.43,38 2.28,22.64 -1.76,45.44 -8.51,67.01 -6.23,17.12 -14.94,33.43 -26.51,47.54 -6.86,9.03 -15.2,16.76 -23.48,24.46 -18.08,16.13 -40.01,27.36 -62.92,34.86 -11.24,2.9 -22.43,6.45 -34.11,7 -36.63,3.8 -74.89,-3.27 -106.58,-22.41 -56.76,-31.04 -92.44,-97.84 -84.49,-162.35 0.87,-13.53 5.38,-26.41 10.04,-39.01 10.57,-24.99 26.4,-47.19 38.91,-71.16 5.16,-10.73 9.92,-21.9 11.07,-33.88 1.55,-13.55 0.21,-28.11 -6.84,-40.04 -2.78,-4.5 -6.65,-8.17 -10.54,-11.69 -7.12,-5.42 -17.06,-7.38 -25.5,-4.04 -7.77,2.51 -13.91,10.48 -13.05,18.82 0.39,6.23 4.52,11.95 10.11,14.63 3.1,1.1 6.43,0.39 9.61,0.07 -2.16,-2.1 -5.18,-3.22 -6.9,-5.78 -3.27,-4.07 -1.8,-10.91 2.84,-13.3 3.65,-1.82 8.19,-2.08 11.9,-0.25 4.38,2.7 7.63,7.13 9.16,12.02 1.33,5.73 -0.11,12.02 -3.78,16.62 -5.76,8.1 -17.19,9.79 -26.28,7.35 -16.61,-4.66 -27.03,-24.04 -22.58,-40.55 1.99,-6.52 4.84,-13.13 10.09,-17.7 9.14,-8.7 22.63,-12.63 34.99,-10.04 11.94,2.15 22.32,9.68 29.93,18.88 4.71,5.28 7.97,11.59 11.14,17.86 27.14956,-0.034 190.85523,-0.0182 197.09699,-0.009 3.49,-7.88 8.22301,-16.02139 14.31301,-22.16139 m -207.38,38.47 c 1.15,5.28 2.57,10.53 3.03,15.94 1.47,10.84 2.52,21.89 0.84,32.78 -3.32,28.85 -17.77,54.52 -28.1,81.19 -9.93,28.15 -12.31,60.02 -1.5,88.28 4.02,11.54 10.76,21.82 17.04,32.22 5.36,7.74 11.65,14.88 18.68,21.15 6.24,4.95 12.85,9.43 19.8,13.32 8.16,5.62 17.69,8.67 27.03,11.69 7.74,2.64 15.86,4.02 24.01,4.55 13.29,2.13 26.83,0.72 40.01,-1.49 8.07,-1.28 15.41,-5.07 23.19,-7.37 12.3,-4.77 23.34,-12.34 33.62,-20.5 4.68,-3.62 8.38,-8.29 12.5,-12.5 12.92,-13.6 22.26,-30.4 27.48,-48.39 6.65,-25.53 6.47,-53.05 -2.11,-78.1 -3.17,-9.65 -8.08,-18.58 -12.05,-27.9 -3.7,-7.83 -6.62,-15.99 -9.79,-24.04 -3.42,-8.6 -5.15,-17.75 -6.7,-26.84 -2.26,-18.15 -2.22,-36.79 1.94,-54.68 -17.35024,-0.0273 -175.51833,-0.0371 -189.11876,-0.0548 M 626.91,451.91 c 0.87,4.45 2.68,8.63 4.55,12.74 8.69,20.42 19.43,40.31 23.5,62.34 3.65,17.49 4.19,35.65 1.5,53.31 -3.7,19.31 -9.96,38.55 -21.48,54.69 -7.84,11.87 -17.57,22.45 -28.36,31.69 -7.63,6.61 -16.35,11.79 -24.97,16.98 -10.57,4.95 -21.53,9.15 -32.87,11.96 -12.61,3.42 -25.8,3.88 -38.79,3.98 -38.41,-0.29 -75.97,-17.46 -102.28,-45.24 -24.56,-26.34 -38.74,-62.36 -37.53,-98.44 0.74,-5.97 0.65,-12.01 1.58,-17.96 1.97,-19.56 9.51,-37.95 17.39,-55.75 2.35,-4.19 3.99,-8.69 5.76,-13.13 2.68,-5.45 5.04,-11.06 6.58,-16.94 -0.95,0.87 -1.79,1.83 -2.52,2.88 -8.39,15.49 -17.85,30.38 -26.07,45.98 -8.32,15.65 -14.16,32.84 -15.11,50.64 -3.78,31.14 5.88,62.45 21.37,89.22 8.1,12.83 17.85,24.66 29.28,34.67 7.9,6.57 15.8,13.26 24.8,18.31 8.39,4.55 16.82,9.15 25.9,12.22 9.24,3.68 19.02,5.66 28.73,7.62 24.35,3.07 49.67,2.57 73.09,-5.37 9.05,-2.33 17.35,-6.64 25.74,-10.62 18.09,-8.79 33.72,-21.98 47.14,-36.82 5.22,-5.96 9.71,-12.51 14.47,-18.83 7.77,-12.05 13.35,-25.37 17.53,-39.06 3.94,-13.63 5.39,-27.89 5.59,-42.03 0.2,-23.85 -7.56,-47.24 -19.74,-67.56 -5.68,-10.71 -11.9,-21.14 -18.5,-31.3 -2.01,-3.45 -3.86,-7 -6.28,-10.18 z"
         id="path5"
         style="display:inline"
         sodipodi:nodetypes="ccccccccccccccccccccccccccccccccccccccccccccccccccccccccccccccccccccccccccccccccccccccccccccccccccccccc" />
    </g>
    <g
       id="g14"
       style="display:inline"
       transform="matrix(1.9366362,0,0,1.9366362,-483.06917,-512.58892)">
      <rect
         style="fill:#dda54b;fill-opacity:1;stroke-width:0.75"
         id="rect14"
         width="11.988467"
         height="331.97601"
         x="581.02057"
         y="338.89346"
         ry="5.9942336" />
      <rect
         style="fill:#dda54b;fill-opacity:1;stroke-width:0.772526"
         id="rect14-6"
         width="11.988467"
         height="352.21707"
         x="522.7832"
         y="338.18576"
         ry="6.3597107" />
      <rect
         style="fill:#dda54b;fill-opacity:1;stroke-width:0.765201"
         id="rect14-5"
         width="11.988467"
         height="345.57013"
         x="552.30731"
         y="338.48322"
         ry="6.2396917" />
      <rect
         style="fill:#dda54b;fill-opacity:1;stroke-width:0.775061"
         id="rect14-56"
         width="11.988467"
         height="354.53204"
         x="494.49728"
         y="337.75812"
         ry="6.4015107" />
      <rect
         style="fill:#dda54b;fill-opacity:1;stroke-width:0.769808"
         id="rect14-9"
         width="11.988467"
         height="349.74258"
         x="465.44119"
         y="338.39377"
         ry="6.3150306" />
      <rect
         style="fill:#dda54b;fill-opacity:1;stroke-width:0.75386"
         id="rect14-2"
         width="11.988467"
         height="335.40225"
         x="435.96457"
         y="338.70584"
         ry="6.0560985" />
    </g>
  </g>
</svg>
